# xmcd
#
# Track frame offsets:
# 150
# 17627
# 34524
# 49812
# 65804
# 82280
# 103560
# 116200
# 133237
# 149439
# 163604
#
# Disc length: 2340 seconds
#
#
# Revision: 0
# Processed by: cddbd v1.5.2PL0 Copyright (c) Steve Scherf et al.
# Submitted via: FreeRIP 2.60 
#
DISCID=a209220b
DTITLE=The Glovers - One Good Reason
DYEAR=2008
DGENRE=Gospel
TTITLE0=When Tomorrow Starts Without Me
TTITLE1=Mercy Came Down
TTITLE2=Great Big God and a Simple Man
TTITLE3=That's Why It's Called Amazing Grace
TTITLE4=One Good Reason
TTITLE5=Please Come Down to Me
TTITLE6=If You Had Only Seen Me Then
TTITLE7=Hidden Secrets
TTITLE8=I'm Proud to be Here
TTITLE9=No Distance Too Far
TTITLE10=Standing on the Promises
EXTD=
EXTT0=
EXTT1=
EXTT2=
EXTT3=
EXTT4=
EXTT5=
EXTT6=
EXTT7=
EXTT8=
EXTT9=
EXTT10=
PLAYORDER=
